<svg xmlns="http://www.w3.org/2000/svg" width="400" height="400" viewBox="0 0 400 400" role="img" aria-label="No image available">
  <rect width="400" height="400" fill="#e7ecf5"/>
  <rect x="0" y="0" width="400" height="400" fill="#dfe6f2"/>
  <g fill="#8a97b1" transform="translate(200 168)">
    <path d="M-54-40h108a12 12 0 0 1 12 12v56a12 12 0 0 1-12 12H-54a12 12 0 0 1-12-12v-56a12 12 0 0 1 12-12Zm0 12v56h108v-56Z"/>
    <circle cx="-28" cy="-8" r="12"/>
    <path d="M-58 26 -20-8l22 22 26-30 30 42Z"/>
  </g>
  <text x="200" y="250" text-anchor="middle" font-family="system-ui, -apple-system, Segoe UI, Roboto, sans-serif" font-size="26" font-weight="700" fill="#5b6784">PopRef</text>
  <text x="200" y="284" text-anchor="middle" font-family="system-ui, -apple-system, Segoe UI, Roboto, sans-serif" font-size="16" fill="#8a97b1">No image yet</text>
</svg>
